<svg width="16" height="16" viewBox="0 0 24 24" fill="none" xmlns="http://www.w3.org/2000/svg">
<path d="M7 18C5.9 18 5.01 18.9 5.01 20S5.9 22 7 22 9 21.1 9 20 8.1 18 7 18ZM1 2V4H3L6.6 11.59L5.24 14.04C5.09 14.32 5 14.65 5 15C5 16.1 5.9 17 7 17H19V15H7.42C7.28 15 7.17 14.89 7.17 14.75V14.64L8.1 13H15.55C16.3 13 16.96 12.58 17.3 11.97L20.88 5.48C20.95 5.34 21 5.17 21 5C21 4.45 20.55 4 20 4H5.21L4.27 2H1ZM17 18C15.9 18 15.01 18.9 15.01 20S15.9 22 17 22 19 21.1 19 20 18.1 18 17 18Z" fill="#16A34A"/>
</svg>
