<svg width="16" height="16" viewBox="0 0 24 24" fill="none" xmlns="http://www.w3.org/2000/svg">
<path d="M11.8 10.9C11.39 10.9 11.05 10.56 11.05 10.15C11.05 9.74 11.39 9.4 11.8 9.4C12.21 9.4 12.55 9.74 12.55 10.15C12.55 10.56 12.21 10.9 11.8 10.9ZM12.2 13.1C11.79 13.1 11.45 12.76 11.45 12.35C11.45 11.94 11.79 11.6 12.2 11.6C12.61 11.6 12.95 11.94 12.95 12.35C12.95 12.76 12.61 13.1 12.2 13.1Z" fill="#10B981"/>
<path d="M12 2C6.48 2 2 6.48 2 12C2 17.52 6.48 22 12 22C17.52 22 22 17.52 22 12C22 6.48 17.52 2 12 2ZM12 20C7.59 20 4 16.41 4 12C4 7.59 7.59 4 12 4C16.41 4 20 7.59 20 12C20 16.41 16.41 20 12 20Z" fill="#10B981"/>
<path d="M7 13H17V11H7V13Z" fill="#10B981"/>
</svg>
